<svg width="316" height="70" viewBox="0 0 316 70" fill="none" xmlns="http://www.w3.org/2000/svg">
<path d="M238.009 68C233.569 68 230.299 66.83 228.199 64.49C226.099 62.15 225.049 59.12 225.049 55.4V30.65H211.549V21.56H220.729C222.589 21.56 223.909 21.2 224.689 20.48C225.469 19.7 225.859 18.35 225.859 16.43V5.18002H236.569V21.56H255.469V30.65H236.569V58.91H255.469V68H238.009Z" fill="black"/>
<path d="M183.775 14.36C181.075 14.36 179.155 13.79 178.015 12.65C176.935 11.51 176.395 10.13 176.395 8.51V6.35C176.395 4.73 176.935 3.35 178.015 2.21C179.155 1.07 181.075 0.5 183.775 0.5C186.475 0.5 188.365 1.07 189.445 2.21C190.585 3.35 191.155 4.73 191.155 6.35V8.51C191.155 10.13 190.585 11.51 189.445 12.65C188.365 13.79 186.475 14.36 183.775 14.36Z" fill="#FFE600"/>
<path d="M106.86 1.40002H118.38V40.46H118.92L125.67 33.08L137.1 21.56H150.51L132.06 39.83L152.49 68H138.72L123.87 46.4L118.38 51.62V68H106.86V1.40002Z" fill="black"/>
<path d="M82.2349 59.81H81.6049C80.3449 62.63 78.6049 64.88 76.3849 66.56C74.2249 68.24 71.3449 69.08 67.7449 69.08C65.1049 69.08 62.6749 68.6 60.4549 67.64C58.2949 66.62 56.4349 65.12 54.8749 63.14C53.3149 61.1 52.1149 58.55 51.2749 55.49C50.4349 52.43 50.0149 48.86 50.0149 44.78C50.0149 36.62 51.6349 30.53 54.8749 26.51C58.1149 22.49 62.4049 20.48 67.7449 20.48C71.3449 20.48 74.2249 21.32 76.3849 23C78.6049 24.68 80.3449 26.93 81.6049 29.75H82.2349V1.40002H93.7549V68H82.2349V59.81ZM72.6049 59.9C73.9249 59.9 75.1549 59.75 76.2949 59.45C77.4949 59.09 78.5149 58.61 79.3549 58.01C80.2549 57.35 80.9449 56.54 81.4249 55.58C81.9649 54.56 82.2349 53.39 82.2349 52.07V37.49C82.2349 36.17 81.9649 35.03 81.4249 34.07C80.9449 33.05 80.2549 32.24 79.3549 31.64C78.5149 30.98 77.4949 30.5 76.2949 30.2C75.1549 29.84 73.9249 29.66 72.6049 29.66C69.2449 29.66 66.6349 30.68 64.7749 32.72C62.9749 34.76 62.0749 37.55 62.0749 41.09V48.47C62.0749 52.01 62.9749 54.8 64.7749 56.84C66.6349 58.88 69.2449 59.9 72.6049 59.9Z" fill="#2151FF"/>
<path d="M21.88 14.36C19.18 14.36 17.26 13.79 16.12 12.65C15.04 11.51 14.5 10.13 14.5 8.51V6.35C14.5 4.73 15.04 3.35 16.12 2.21C17.26 1.07 19.18 0.5 21.88 0.5C24.58 0.5 26.47 1.07 27.55 2.21C28.69 3.35 29.26 4.73 29.26 6.35V8.51C29.26 10.13 28.69 11.51 27.55 12.65C26.47 13.79 24.58 14.36 21.88 14.36ZM0.820007 58.91H16.12V30.65H0.820007V21.56H27.64V58.91H41.86V68H0.820007V58.91Z" fill="#2151FF"/>
<path d="M178.015 58.91H162.715V68H203.755V58.91H189.535V21.56H162.715V30.65H178.015V58.91Z" fill="black"/>
<path d="M268.06 69L285.43 45.42L269.05 22.56H282.28L287.86 30.75L292.18 37.23H292.81L297.13 30.75L302.71 22.56H314.95L298.57 44.88L315.94 69H302.62L296.23 59.64L291.82 53.07H291.19L286.78 59.64L280.39 69H268.06Z" fill="#454545"/>
</svg>
