<svg width="334" height="109" viewBox="0 0 334 109" fill="none" xmlns="http://www.w3.org/2000/svg">
<path d="M246.009 75C241.569 75 238.299 73.83 236.199 71.49C234.099 69.15 233.049 66.12 233.049 62.4V37.65H219.549V28.56H228.729C230.589 28.56 231.909 28.2 232.689 27.48C233.469 26.7 233.859 25.35 233.859 23.43V12.18H244.569V28.56H263.469V37.65H244.569V65.91H263.469V75H246.009Z" fill="white"/>
<path d="M191.775 21.36C189.075 21.36 187.155 20.79 186.015 19.65C184.935 18.51 184.395 17.13 184.395 15.51V13.35C184.395 11.73 184.935 10.35 186.015 9.21C187.155 8.07 189.075 7.5 191.775 7.5C194.475 7.5 196.365 8.07 197.445 9.21C198.585 10.35 199.155 11.73 199.155 13.35V15.51C199.155 17.13 198.585 18.51 197.445 19.65C196.365 20.79 194.475 21.36 191.775 21.36Z" fill="#FFE600"/>
<path d="M114.86 8.40002H126.38V47.46H126.92L133.67 40.08L145.1 28.56H158.51L140.06 46.83L160.49 75H146.72L131.87 53.4L126.38 58.62V75H114.86V8.40002Z" fill="white"/>
<path d="M90.2349 66.81H89.6048C88.3448 69.63 86.6049 71.88 84.3849 73.56C82.2249 75.24 79.3448 76.08 75.7448 76.08C73.1048 76.08 70.6748 75.6 68.4548 74.64C66.2948 73.62 64.4348 72.12 62.8748 70.14C61.3148 68.1 60.1148 65.55 59.2748 62.49C58.4348 59.43 58.0148 55.86 58.0148 51.78C58.0148 43.62 59.6348 37.53 62.8748 33.51C66.1148 29.49 70.4048 27.48 75.7448 27.48C79.3448 27.48 82.2249 28.32 84.3849 30C86.6049 31.68 88.3448 33.93 89.6048 36.75H90.2349V8.40002H101.755V75H90.2349V66.81ZM80.6048 66.9C81.9248 66.9 83.1548 66.75 84.2948 66.45C85.4949 66.09 86.5148 65.61 87.3548 65.01C88.2548 64.35 88.9448 63.54 89.4248 62.58C89.9648 61.56 90.2349 60.39 90.2349 59.07V44.49C90.2349 43.17 89.9648 42.03 89.4248 41.07C88.9448 40.05 88.2548 39.24 87.3548 38.64C86.5148 37.98 85.4949 37.5 84.2948 37.2C83.1548 36.84 81.9248 36.66 80.6048 36.66C77.2448 36.66 74.6348 37.68 72.7748 39.72C70.9748 41.76 70.0748 44.55 70.0748 48.09V55.47C70.0748 59.01 70.9748 61.8 72.7748 63.84C74.6348 65.88 77.2448 66.9 80.6048 66.9Z" fill="#2151FF"/>
<path d="M29.88 21.36C27.18 21.36 25.26 20.79 24.12 19.65C23.04 18.51 22.5 17.13 22.5 15.51V13.35C22.5 11.73 23.04 10.35 24.12 9.21C25.26 8.07 27.18 7.5 29.88 7.5C32.58 7.5 34.47 8.07 35.55 9.21C36.69 10.35 37.26 11.73 37.26 13.35V15.51C37.26 17.13 36.69 18.51 35.55 19.65C34.47 20.79 32.58 21.36 29.88 21.36ZM8.82 65.91H24.12V37.65H8.82V28.56H35.64V65.91H49.86V75H8.82V65.91Z" fill="#2151FF"/>
<path d="M186.015 65.91H170.715V75H211.755V65.91H197.535V28.56H170.715V37.65H186.015V65.91Z" fill="white"/>
<path d="M276.06 76L293.43 52.42L277.05 29.56H290.28L295.86 37.75L300.18 44.23H300.81L305.13 37.75L310.71 29.56H322.95L306.57 51.88L323.94 76H310.62L304.23 66.64L299.82 60.07H299.19L294.78 66.64L288.39 76H276.06Z" fill="#2C3455"/>
</svg>
